<?xml version="1.0" encoding="UTF-8"?>
<svg xmlns="http://www.w3.org/2000/svg" width="720" height="180" viewBox="0 0 720 180" role="img" aria-labelledby="title desc">
<title id="title">CannyForge logo</title>
<desc id="desc">CannyForge logo with original anvil and flame icon, transparent background, and live text wordmark.</desc>
<g id="icon" transform="translate(20 15) scale(0.34) translate(-120 -80)">
  <path d="M0 0 C28.38 0 56.76 0 86 0 C83.45949881 15.24300713 72.98478424 25.36179071 60.984375 34.265625 C45.34364952 45.31630843 26.85941492 53.06252564 7.875 55.5625 C-1.49573553 56.79912128 -8.30114965 59.33054993 -14.4375 66.875 C-19.38164531 74.28421493 -21.04703133 81.08833563 -20 90 C-17.28253439 102.50357689 -10.36162351 112.54410142 0 120 C5.58366515 123.2648437 10.63664477 125.72732895 17 127 C17 134.59 17 142.18 17 150 C-4.45 150 -25.9 150 -48 150 C-48.33 145.38 -48.66 140.76 -49 136 C-52.99096512 125.97391689 -57.63197864 119.40052951 -67.375 114.5625 C-76.14476175 111.44013901 -88.05079333 111.11494347 -96.625 114.9375 C-104.67458218 119.86439944 -110.11589958 127.11697071 -113 136 C-113.33 140.62 -113.66 145.24 -114 150 C-135.45 150 -156.9 150 -179 150 C-179 142.41 -179 134.82 -179 127 C-177.02 126.29875 -175.04 125.5975 -173 124.875 C-167.18890206 122.63899058 -162.63213336 120.13345871 -158 116 C-157.13375 115.236875 -156.2675 114.47375 -155.375 113.6875 C-146.56633149 103.71979616 -143.2718867 95.01181727 -143.71875 81.78125 C-144.44257929 72.04976734 -149.59617065 65.10035988 -156.4375 58.4375 C-164.91522202 51.39668002 -175.83520588 47.97418647 -186.125 44.5 C-198.1176607 40.43570742 -210.03160762 35.27764729 -219 26 C-219.66 24.35 -220.32 22.7 -221 21 C-148.07 21 -75.14 21 0 21 C0 14.07 0 7.14 0 0 Z " fill="#5D35FC" transform="translate(378,288)"/>
  <path d="M0 0 C17.60460454 10.84341584 30.10156936 25.96132577 36.16796875 45.82421875 C37.26169208 50.55398735 37.38256786 55.22352199 37.375 60.0625 C37.37584595 61.44187744 37.37584595 61.44187744 37.37670898 62.84912109 C37.26391109 69.92641872 36.06823391 75.90167614 33.95703125 82.66796875 C32.59618836 87.40592379 32.20411001 92.09115436 32 97 C32.66 97 33.32 97 34 97 C34.12955078 95.47632813 34.12955078 95.47632813 34.26171875 93.921875 C35.68737975 79.20201499 39.76438504 66.61070226 51.59765625 56.859375 C55.35609933 54.13602596 58.45843154 52.02788523 63 51 C62.67902344 52.14339844 62.35804688 53.28679687 62.02734375 54.46484375 C58.52172566 68.59599339 60.93548333 82.61963434 67.796875 95.328125 C69.78180259 98.61516509 71.85861346 101.81282003 74 105 C85.23518327 121.76525874 92.06055776 137.00099845 88.3515625 157.6015625 C84.85999671 168.91184827 78.35093617 177.85225203 69 185 C68.44828125 185.45503906 67.8965625 185.91007813 67.328125 186.37890625 C61.87001363 190.25632695 55.40998302 189.3470066 49 189 C49.41572266 188.20335937 49.41572266 188.20335937 49.83984375 187.390625 C50.20207031 186.68421875 50.56429687 185.9778125 50.9375 185.25 C51.29714844 184.55390625 51.65679687 183.8578125 52.02734375 183.140625 C55.65170122 175.16412743 55.50768415 162.83982015 52.5 154.625 C48.63080149 146.61602966 42.77085906 139.87281827 37 133.1875 C28.16423371 122.71548069 22.44979899 111.77309044 21 98 C20.64550781 98.79019531 20.29101562 99.58039063 19.92578125 100.39453125 C14.21153614 112.50098276 6.64598961 123.2467044 -1.21875 134.046875 C-10.66835832 147.06080927 -14.3465907 160.04686078 -13 176 C-12.02289526 179.56797975 -10.66806174 182.71076983 -9 186 C-8.67 186.99 -8.34 187.98 -8 189 C-15.58402734 189.69295681 -20.84019497 189.51352682 -26.9765625 184.76171875 C-27.64429688 184.18035156 -28.31203125 183.59898437 -29 183 C-29.62648437 182.47019531 -30.25296875 181.94039062 -30.8984375 181.39453125 C-41.04815779 172.06476653 -46.63678258 158.38796978 -47.23828125 144.75 C-47.86818724 118.01836452 -35.13357491 97.22882397 -19.40405273 76.64086914 C-4.86739175 57.5816914 6.76012922 38.84733778 4 14 C3.29153588 10.50434471 2.28537251 7.31666069 1 4 C0.64830932 2.67139075 0.30925911 1.33912198 0 0 Z " fill="#FDB526" transform="translate(267,90)"/>
  <path d="M0 0 C27.72 0 55.44 0 84 0 C82.31924927 13.44600586 75.27991927 21.19077149 64.90625 29.46875 C47.90104563 42.33587201 28.11301689 51.77970349 6.875 54.5625 C-2.49567128 55.79841248 -9.3014273 58.3308913 -15.4375 65.875 C-20.38164531 73.28421493 -22.04703133 80.08833563 -21 89 C-18.28253439 101.50357689 -11.36162351 111.54410142 -1 119 C4.58366515 122.2648437 9.63664477 124.72732895 16 126 C16 133.59 16 141.18 16 149 C-5.45 149 -26.9 149 -49 149 C-49.33 144.38 -49.66 139.76 -50 135 C-53.99096512 124.97391689 -58.63197864 118.40052951 -68.375 113.5625 C-77.14476175 110.44013901 -89.05079333 110.11494347 -97.625 113.9375 C-105.67458218 118.86439944 -111.11589958 126.11697071 -114 135 C-114.33 139.62 -114.66 144.24 -115 149 C-136.45 149 -157.9 149 -180 149 C-180 141.41 -180 133.82 -180 126 C-178.02 125.29875 -176.04 124.5975 -174 123.875 C-166.78525128 121.09889017 -161.62782498 117.7500494 -156.3125 112.1875 C-152.0923307 108.19544796 -147.25223794 108.93386787 -141.6875 109.0625 C-111.81615881 109.35038351 -77.32549711 101.51972811 -54.4140625 81.41015625 C-49.89485158 76.89825797 -45.93417168 72.02262584 -42 67 C-31.28450666 53.37268782 -20.86809391 43.64872898 -4 38 C-3.01 38 -2.02 38 -1 38 C-1.01160156 37.03578125 -1.02320313 36.0715625 -1.03515625 35.078125 C-1.04417969 33.81484375 -1.05320312 32.5515625 -1.0625 31.25 C-1.07410156 29.99703125 -1.08570313 28.7440625 -1.09765625 27.453125 C-1 24 -1 24 0 20 C0 13.4 0 6.8 0 0 Z " fill="#4E23F4" transform="translate(379,289)"/>
  <path d="M0 0 C74.25 0 148.5 0 225 0 C225 5.94 225 11.88 225 18 C152.73 18 80.46 18 6 18 C1 8 1 8 0 0 Z " fill="#5C34FC" transform="translate(146,286)"/>
  <path d="M0 0 C4.455 0.99 4.455 0.99 9 2 C9 9.59 9 17.18 9 25 C-12.45 25 -33.9 25 -56 25 C-56.33 20.38 -56.66 15.76 -57 11 C-57.99 8.03 -58.98 5.06 -60 2 C-40.2 2 -20.4 2 0 2 C0 1.34 0 0.68 0 0 Z " fill="#5C31FB" transform="translate(386,413)"/>
  <path d="M0 0 C1.30104675 0.02009628 2.60209351 0.04019257 3.94256592 0.06089783 C5.35787166 0.08809227 6.77317516 0.11540315 8.18847656 0.14282227 C9.640068 0.16713515 11.09166737 0.19097812 12.54327393 0.21437073 C16.35737172 0.27709545 20.1713283 0.34619472 23.98529053 0.41662598 C27.87977691 0.48741454 31.77436312 0.55216846 35.66894531 0.61743164 C43.30577451 0.74629423 50.94246459 0.88189187 58.57910156 1.02172852 C58.10472656 2.21797852 57.63035156 3.41422852 57.14160156 4.64672852 C54.99257752 11.3374735 54.99257752 11.3374735 54.57910156 24.02172852 C33.12910156 24.02172852 11.67910156 24.02172852 -10.42089844 24.02172852 C-10.42089844 16.43172852 -10.42089844 8.84172852 -10.42089844 1.02172852 C-6.63645968 0.07561883 -3.8671832 -0.06745087 0 0 Z " fill="#5C32FB" transform="translate(209.4208984375,413.978271484375)"/>
  <path d="M0 0 C0.66 0 1.32 0 2 0 C2.36738281 1.18142578 2.36738281 1.18142578 2.7421875 2.38671875 C5.33033338 9.92804036 8.43659049 15.5094842 13.52099609 21.59643555 C17.64593078 26.55348278 19.45570525 30.40194193 19.24609375 36.94921875 C18.6517765 41.90186251 16.7591793 45.60882007 13.0625 48.875 C7.58032014 52.67896153 1.53221736 52.82230176 -5 52 C-9.74345309 49.94023028 -12.83255786 46.69612464 -15 42 C-16.8949083 36.83206828 -16.51612533 31.71528606 -14.4375 26.6875 C-12.79491745 23.2392416 -10.81996493 20.26317275 -8.5625 17.1875 C-4.6639923 11.85225778 -2.29863265 6.16499632 0 0 Z " fill="#FDA61B" transform="translate(286,230)"/>
  <path d="M0 0 C2.38510347 2.38510347 2.8048496 4.17624596 3.8125 7.375 C5.46835739 11.9933368 6.54735662 14.58008512 11 17 C14.29646709 18.44315379 17.61991299 19.76610416 21 21 C17.84822102 23.10118598 14.75117143 24.39631337 11.25390625 25.8046875 C6.36902478 28.39528322 4.46658073 31.60025781 2.75 36.75 C2.41484375 37.73484375 2.0796875 38.7196875 1.734375 39.734375 C1.37085938 40.85585937 1.37085938 40.85585937 1 42 C0.34 42 -0.32 42 -1 42 C-1.14695312 41.12988281 -1.14695312 41.12988281 -1.296875 40.2421875 C-2.29502783 35.02769946 -3.24156661 30.93740641 -7 27 C-10.89935232 25.03472643 -14.88795152 23.46119962 -19 22 C-19 21.34 -19 20.68 -19 20 C-18.25234375 19.76925781 -17.5046875 19.53851563 -16.734375 19.30078125 C-9.03398087 16.92597706 -9.03398087 16.92597706 -4 11 C-2.53953327 7.37189318 -1.22298514 3.71449211 0 0 Z " fill="#FDB82C" transform="translate(389,215)"/>
  <path d="M0 0 C0.66 0 1.32 0 2 0 C2.23074219 0.80824219 2.46148437 1.61648437 2.69921875 2.44921875 C5.11182998 10.85178064 5.11182998 10.85178064 11 17 C14.27619629 18.51480044 17.59151211 19.81530227 21 21 C18.34739459 22.76840361 15.96931366 23.87485157 13.0625 25.125 C8.51425915 27.36932846 6.55280865 29.3203766 4.671875 33.99609375 C4.45015625 34.65738281 4.2284375 35.31867188 4 36 C3.5875 37.155 3.175 38.31 2.75 39.5 C2.5025 40.325 2.255 41.15 2 42 C0 41 0 41 -0.9296875 38.63671875 C-1.55714024 36.6791699 -2.18216287 34.72084037 -2.8046875 32.76171875 C-4.55672993 28.71369914 -6.62972466 26.67268062 -10.578125 24.734375 C-11.45984375 24.40953125 -12.3415625 24.0846875 -13.25 23.75 C-14.14203125 23.41484375 -15.0340625 23.0796875 -15.953125 22.734375 C-16.62859375 22.49203125 -17.3040625 22.2496875 -18 22 C-16.60601235 19.21202469 -15.09352143 19.1873756 -12.1875 18.1875 C-7.79419154 16.46021633 -5.29050977 15.30615836 -3 11 C-1.8257078 7.3694372 -0.85924351 3.71687911 0 0 Z " fill="#FDB628" transform="translate(187,215)"/>
  <path d="M0 0 C0.66 0.33 1.32 0.66 2 1 C-5.11389522 8.66742597 -5.11389522 8.66742597 -10 10 C-10 10.66 -10 11.32 -10 12 C-7.69 12 -5.38 12 -3 12 C-2.67 12.66 -2.34 13.32 -2 14 C-7.94 14 -13.88 14 -20 14 C-17.23951973 11.23951973 -15.68465515 10.2394948 -12.25 8.6875 C-7.43204396 6.37035985 -3.89607237 3.64198069 0 0 Z " fill="#431BE6" transform="translate(224,401)"/>
  <path d="M0 0 C2.475 0.99 2.475 0.99 5 2 C5 2.66 5 3.32 5 4 C-9.85 4 -24.7 4 -40 4 C-40 3.67 -40 3.34 -40 3 C-26.8 3 -13.6 3 0 3 C0 2.01 0 1.02 0 0 Z " fill="#451FED" transform="translate(381,411)"/>
  <path d="M0 0 C1.485 0.99 1.485 0.99 3 2 C2.34 6.29 1.68 10.58 1 15 C0.34 15 -0.32 15 -1 15 C-1.02715383 13.25008666 -1.04646551 11.50005055 -1.0625 9.75 C-1.07410156 8.77546875 -1.08570313 7.8009375 -1.09765625 6.796875 C-1.01195577 4.34241322 -0.70706066 2.33831086 0 0 Z " fill="#FCF2D2" transform="translate(300,172)"/>
  <path d="M0 0 C0.66 0 1.32 0 2 0 C2.66 2.97 3.32 5.94 4 9 C3.01 9 2.02 9 1 9 C0.67 8.67 0.34 8.34 0 8 C-0.33 8.66 -0.66 9.32 -1 10 C-1.66 10 -2.32 10 -3 10 C-2.01 6.7 -1.02 3.4 0 0 Z " fill="#FDBA3A" transform="translate(286,230)"/>
  <path d="M0 0 C2.35953094 2.35953094 2.49141413 3.77895617 3 7 C2.01 7 1.02 7 0 7 C-0.66 8.32 -1.32 9.64 -2 11 C-3.13643966 7.59068103 -2.86747764 6.99664544 -1.5625 3.8125 C-1.13130859 2.73935547 -1.13130859 2.73935547 -0.69140625 1.64453125 C-0.46324219 1.10183594 -0.23507812 0.55914062 0 0 Z " fill="#FDC749" transform="translate(389,215)"/>
  <path d="M0 0 C0.66 0 1.32 0 2 0 C3.3442623 5.37704918 3.3442623 5.37704918 1.6875 8.375 C0 10 0 10 -2 10 C-1.34 6.7 -0.68 3.4 0 0 Z " fill="#FDC74B" transform="translate(187,215)"/>
  <path d="M0 0 C2.97 1.98 2.97 1.98 6 4 C5.835 4.53625 5.67 5.0725 5.5 5.625 C4.90339788 8.45886009 4.9343632 11.1119806 5 14 C4.67 14 4.34 14 4 14 C3.5196682 12.41701974 3.04078388 10.83360022 2.5625 9.25 C2.29566406 8.36828125 2.02882813 7.4865625 1.75390625 6.578125 C1.11531506 4.39434165 0.53224167 2.21164502 0 0 Z " fill="#FED151" transform="translate(267,90)"/>
  <path d="M0 0 C0.33 0.66 0.66 1.32 1 2 C1.66 2 2.32 2 3 2 C2.34 4.64 1.68 7.28 1 10 C0.34 9.67 -0.32 9.34 -1 9 C-0.67 6.03 -0.34 3.06 0 0 Z " fill="#FDF8E7" transform="translate(302,164)"/>
  <path d="M0 0 C0 3 0 3 -1.3125 4.38671875 C-2.875 5.59114583 -4.4375 6.79557292 -6 8 C-6 5 -6 5 -4.6875 3.61328125 C-3.125 2.40885417 -1.5625 1.20442708 0 0 Z " fill="#FDC843" transform="translate(321,145)"/>
</g>
<text x="170" y="108" font-family="Inter, ui-sans-serif, system-ui, -apple-system, BlinkMacSystemFont, 'Segoe UI', sans-serif" font-size="64" font-weight="800" letter-spacing="-2.5" dominant-baseline="middle">
  <tspan fill="#1B143F">canny</tspan><tspan fill="#6d4aff">forge</tspan>
</text>
</svg>
