<?xml version="1.0" encoding="UTF-8"?>
<svg version="1.1" xmlns="http://www.w3.org/2000/svg" width="1535" height="512">
<path d="M0 0 C506.55 0 1013.1 0 1535 0 C1535 168.96 1535 337.92 1535 512 C1028.45 512 521.9 512 0 512 C0 343.04 0 174.08 0 0 Z " fill="#12083A" transform="translate(0,0)"/>
<path d="M0 0 C72.27 0 144.54 0 219 0 C219.33 0.99 219.66 1.98 220 3 C250.36 3 280.72 3 312 3 C309.91203926 15.52776441 302.73129202 23.35533546 292.86328125 30.9921875 C274.53686743 43.84317891 253.36474696 53.26349567 231.0625 55.875 C222.52455488 57.09017783 216.46256765 61.5019616 211.21875 68.24609375 C206.0559491 75.67589376 206.06410251 83.11797288 207 92 C210.12092165 104.29585337 217.72508186 112.19206136 228.38671875 118.5625 C233.25579963 121.24085839 237.48254371 122.89650874 243 124 C243 131.26 243 138.52 243 146 C222.21 146 201.42 146 180 146 C179.67 141.38 179.34 136.76 179 132 C175.0462189 122.53488767 168.17806336 116.41906755 159 112 C149.39030385 109.43741436 139.21557821 110.6043623 130.51171875 115.359375 C122.83893194 120.23178299 119.11325672 125.51905929 116 134 C115.67 137.96 115.34 141.92 115 146 C94.21 146 73.42 146 52 146 C52 138.74 52 131.48 52 124 C54.0625 123.360625 56.125 122.72125 58.25 122.0625 C69.9195109 118.08762429 79.75158525 110.63042744 85.2421875 99.4765625 C88.53435135 91.55266467 89.61810165 83.09108222 86.875 74.8125 C86.28896936 73.52323259 85.66169025 72.25212155 85 71 C84.64421875 70.28328125 84.2884375 69.5665625 83.921875 68.828125 C76.13009593 55.21598084 60.05620324 49.7988374 45.875 45.5 C34.16948598 41.93500803 19.7856273 35.88000581 13 25 C13 24.34 13 23.68 13 23 C38.80817796 22.84600726 64.61638416 22.69797662 90.42463684 22.5570364 C102.40794658 22.49145603 114.39123941 22.42392746 126.37451172 22.35180664 C136.81956623 22.28894847 147.26463399 22.22975165 157.70973396 22.17494446 C163.23989957 22.14579907 168.77004124 22.11482502 174.3001709 22.07946587 C179.50718051 22.04623058 184.71419397 22.01789756 189.9212513 21.99329376 C191.83039427 21.98341433 193.73952903 21.9717572 195.64864922 21.95816994 C198.26015198 21.93985258 200.87160931 21.92800026 203.4831543 21.91770935 C204.60964827 21.90750367 204.60964827 21.90750367 205.75889969 21.89709181 C210.59034183 21.88692407 215.21570894 22.31725897 220 23 C220 21.35 220 19.7 220 18 C149.71 18 79.42 18 7 18 C0 4 0 4 0 0 Z " fill="#8042F8" transform="translate(145,250)"/>
<path d="M0 0 C16.59558405 10.22191771 30.57290545 25.30997399 35.3125 44.6875 C36.90942307 54.17778566 36.7747514 63.80180836 34 73 C33.76368392 75.36005966 33.76368392 75.36005966 33.875 77.4375 C33.91625 78.613125 33.9575 79.78875 34 81 C34.1959375 80.18917969 34.391875 79.37835938 34.59375 78.54296875 C37.91142968 66.25897371 44.02085191 56.75328814 55 50 C58.5625 48.5625 58.5625 48.5625 61 48 C60.7834375 48.65484375 60.566875 49.3096875 60.34375 49.984375 C56.04792357 64.06513941 57.81255893 76.17189779 64.5 89.25 C67.8016029 95.02357225 71.72038806 100.39126341 75.68554688 105.72363281 C79.22864825 110.5707605 81.80633828 115.41404403 84 121 C84.40476562 122.00933594 84.80953125 123.01867187 85.2265625 124.05859375 C88.01512468 134.66358021 86.5690214 147.15804634 82 157 C78.05964734 163.64133192 73.39165426 169.59245127 67 174 C66.40832031 174.41121094 65.81664062 174.82242188 65.20703125 175.24609375 C59.37496946 178.72128109 53.62410055 178.39744603 47 178 C47.28875 177.29875 47.5775 176.5975 47.875 175.875 C51.5718652 166.42745559 52.91565657 157.06413139 49.8203125 147.265625 C46.23471046 139.54542922 41.50843326 133.84603341 35.6484375 127.796875 C26.68867898 118.33494712 21.98164964 107.54721342 19 95 C18.39414062 96.00417969 17.78828125 97.00835937 17.1640625 98.04296875 C13.01933609 104.8347403 8.83049636 111.45441474 3.875 117.6875 C-0.98650251 123.83274301 -5.16396549 130.15877716 -9 137 C-9.45632812 137.77085937 -9.91265625 138.54171875 -10.3828125 139.3359375 C-14.93666571 148.41179879 -14.44039884 161.05835477 -12.09375 170.73828125 C-11.18237578 173.24781527 -10.21921653 175.62688212 -9 178 C-16.39129486 178.74603724 -21.0932693 178.18742139 -27.07421875 173.640625 C-29.54545267 171.53531416 -31.82290662 169.41245482 -34 167 C-34.48082031 166.52304688 -34.96164063 166.04609375 -35.45703125 165.5546875 C-43.61705018 157.00216133 -46.93599434 144.72473852 -47.25 133.125 C-46.60125539 108.66351195 -33.44474533 89.54921586 -18.71484375 71.14892578 C-12.21031927 62.99789724 -6.15313311 54.89566012 -1.4375 45.5625 C-1.11475098 44.92425293 -0.79200195 44.28600586 -0.45947266 43.62841797 C2.9729441 36.48638656 4.38955779 29.59329052 4.375 21.6875 C4.37628906 20.95200928 4.37757813 20.21651855 4.37890625 19.45874023 C4.2707266 13.83893049 3.15037013 9.17879318 0.875 4.00390625 C0 2 0 2 0 0 Z " fill="#FBB82C" transform="translate(265,64)"/>
<path d="M0 0 C7.5186722 4.5560166 7.5186722 4.5560166 9 9 C9.66 9 10.32 9 11 9 C11 6.03 11 3.06 11 0 C17.6 0 24.2 0 31 0 C31.09063978 11.91843359 31.16391098 23.83663544 31.20724869 35.75533676 C31.22805648 41.29063551 31.25624907 46.82568469 31.30175781 52.36083984 C31.34545918 57.71010008 31.36918822 63.05912137 31.37950897 68.40854645 C31.38685693 70.44174201 31.40120497 72.47492562 31.42292023 74.50801849 C31.58355848 90.18184941 30.6772665 102.76349448 19.4453125 114.64453125 C9.32577937 124.20724796 -3.31017281 125.51002301 -16.62890625 125.27734375 C-28.41597669 124.75971186 -37.45003331 120.11532962 -45.3125 111.5625 C-48.97342625 107.0536753 -51 102.92128718 -51 97 C-48.34081834 96.11360611 -46.51935359 95.82010975 -43.76953125 95.68359375 C-42.96708984 95.64169922 -42.16464844 95.59980469 -41.33789062 95.55664062 C-40.50451172 95.51732422 -39.67113281 95.47800781 -38.8125 95.4375 C-37.96751953 95.39431641 -37.12253906 95.35113281 -36.25195312 95.30664062 C-34.16815567 95.20068482 -32.08409897 95.0998498 -30 95 C-29.42507813 96.10472656 -28.85015625 97.20945312 -28.2578125 98.34765625 C-25.94311299 102.38059847 -23.8027679 103.70867122 -19.48828125 105.33984375 C-11.45130793 107.47210198 -4.19849007 106.0606867 3 102 C7.2267384 97.87893006 8.90746857 93.88949178 9.1953125 88.01171875 C9.18214778 86.57018208 9.15848651 85.12870781 9.125 83.6875 C9.11597656 82.94693359 9.10695313 82.20636719 9.09765625 81.44335938 C9.07424213 79.62876533 9.03837615 77.81433929 9 76 C8.44441406 76.76828125 7.88882812 77.5365625 7.31640625 78.328125 C4.94180396 81.06712663 3.18896559 82.23951523 -0.0625 83.75 C-0.91972656 84.15734375 -1.77695313 84.5646875 -2.66015625 84.984375 C-10.22747951 88.26902283 -20.90406516 88.27430284 -28.875 85.9375 C-40.2377433 81.28811746 -47.43226484 73.38351542 -52.140625 62.2734375 C-52.42421875 61.52320313 -52.7078125 60.77296875 -53 60 C-53.35835937 59.13890625 -53.71671875 58.2778125 -54.0859375 57.390625 C-57.22147566 45.7596544 -56.33382552 30.76734872 -51 20 C-50.57589844 19.1234375 -50.15179687 18.246875 -49.71484375 17.34375 C-44.37994637 7.47641892 -36.97908156 1.49685897 -26.40234375 -2.15625 C-17.5573297 -4.34973224 -8.32585587 -3.82309708 0 0 Z " fill="#F0EDFA" transform="translate(1274,259)"/>
<path d="M0 0 C2.05052262 1.42541184 3.82675218 2.92877295 5.63671875 4.6484375 C6.66732422 5.61910156 6.66732422 5.61910156 7.71875 6.609375 C17.22306147 16.37818493 19.97930959 27.85503867 20.01953125 41.01757812 C19.78755571 53.82456121 15.50270764 65.22444931 6.63671875 74.6484375 C0.9432299 79.64401481 -5.00615481 82.87399142 -12.36328125 84.6484375 C-13.09675781 84.83019531 -13.83023437 85.01195312 -14.5859375 85.19921875 C-28.57801093 87.46235299 -41.56729428 85.78090488 -53.234375 77.390625 C-62.30983935 69.96373124 -66.84313538 61.05626196 -69.36328125 49.6484375 C-70.69452732 34.66686964 -69.11086054 20.66179793 -59.36328125 8.6484375 C-58.86183594 8.02324219 -58.36039063 7.39804687 -57.84375 6.75390625 C-43.24590275 -9.54879907 -18.04755727 -10.32141292 0 0 Z " fill="#F0ECF9" transform="translate(1134.36328125,262.3515625)"/>
<path d="M0 0 C6.83298369 4.75150757 10.28780748 10.70281348 12.5 18.625 C13.07635257 23.68719089 13.10632494 28.73156609 13.109375 33.8203125 C13.12438598 35.26335478 13.14111916 36.70638006 13.15948486 38.14938354 C13.20284433 41.91398994 13.22308681 45.67836475 13.23822021 49.44317627 C13.25790584 53.29819254 13.29986218 57.15296276 13.33984375 61.0078125 C13.414805 68.54683947 13.46323825 76.08567225 13.5 83.625 C6.57 83.625 -0.36 83.625 -7.5 83.625 C-8.16 80.655 -8.82 77.685 -9.5 74.625 C-10.5725 75.6975 -11.645 76.77 -12.75 77.875 C-22.15692808 85.95446959 -33.57993927 86.69185132 -45.47949219 85.85693359 C-53.49515533 84.9368176 -59.78548931 80.97009075 -64.97265625 74.90234375 C-69.882132 67.80480081 -69.86597299 58.90287835 -68.5 50.625 C-66.21364768 43.78313367 -61.99408363 39.45607004 -55.8671875 35.8046875 C-48.05074405 31.9093642 -40.28368591 30.488789 -31.5703125 30.52734375 C-30.28125 30.53056641 -28.9921875 30.53378906 -27.6640625 30.53710938 C-26.31770764 30.54546267 -24.97135348 30.55392759 -23.625 30.5625 C-22.25520996 30.5675217 -20.88541815 30.57208343 -19.515625 30.57617188 C-16.1770381 30.58792746 -12.83854185 30.60436036 -9.5 30.625 C-9.62665305 29.19463219 -9.76257642 27.76508346 -9.90234375 26.3359375 C-9.97702881 25.53978027 -10.05171387 24.74362305 -10.12866211 23.92333984 C-10.71544575 20.29153103 -12.01239369 18.30396064 -14.5 15.625 C-20.21607271 12.06593586 -26.96353783 11.7664796 -33.5 12.625 C-37.86974491 13.97945968 -40.52822581 16.2733575 -42.69140625 20.27734375 C-43.28824219 21.38207031 -43.88507812 22.48679687 -44.5 23.625 C-47.62536637 23.48642159 -50.75018217 23.33790431 -53.875 23.1875 C-54.76445313 23.14818359 -55.65390625 23.10886719 -56.5703125 23.06835938 C-57.42109375 23.02646484 -58.271875 22.98457031 -59.1484375 22.94140625 C-59.93395996 22.90474854 -60.71948242 22.86809082 -61.52880859 22.83032227 C-63.5 22.625 -63.5 22.625 -65.5 21.625 C-64.45033845 12.79336485 -61.5474524 7.45942859 -55.125 1.375 C-38.87337363 -9.45941758 -16.9308103 -9.70616027 0 0 Z " fill="#EFEBF9" transform="translate(683.5,262.375)"/>
<path d="M0 0 C7.10183831 6.42622095 10.32421791 15.49023143 12.890625 24.47265625 C12.890625 30.74265625 12.890625 37.01265625 12.890625 43.47265625 C-7.569375 43.47265625 -28.029375 43.47265625 -49.109375 43.47265625 C-46.62191685 53.9273173 -46.62191685 53.9273173 -39.671875 60.72265625 C-33.50250173 63.75322558 -27.37552868 64.6652711 -20.6640625 62.7890625 C-16.47659244 61.1237485 -14.50655713 60.08011127 -11.984375 56.22265625 C-11.365625 55.31515625 -10.746875 54.40765625 -10.109375 53.47265625 C-5.07155572 53.04815599 -0.57436759 53.85208652 4.328125 54.97265625 C5.56433594 55.25109375 6.80054688 55.52953125 8.07421875 55.81640625 C9.00363281 56.03296875 9.93304687 56.24953125 10.890625 56.47265625 C9.2803267 64.88199182 4.39422186 71.02295619 -2.609375 75.84765625 C-14.05508379 82.86276809 -27.00535872 84.11569091 -40.16015625 81.9765625 C-51.2820276 78.91502093 -59.57678384 72.06383749 -65.53125 62.35546875 C-72.25818424 50.06715818 -73.30644174 34.01320422 -69.546875 20.59765625 C-65.4195159 8.98582555 -59.04305926 0.47407789 -48.171875 -5.27734375 C-31.96318414 -12.8576488 -14.45283653 -10.46492423 0 0 Z " fill="#EFEBF8" transform="translate(1388.109375,265.52734375)"/>
<path d="M0 0 C7.77402131 6.35532009 11.48529811 14.3495972 13.1328125 24.15234375 C13.21733994 26.17607926 13.25060209 28.20228768 13.24633789 30.2277832 C13.24622459 32.0290844 13.24622459 32.0290844 13.24610901 33.86677551 C13.24094772 35.15339584 13.23578644 36.44001617 13.23046875 37.765625 C13.22860206 39.10369311 13.22717934 40.4417619 13.22618103 41.77983093 C13.22237564 45.28970245 13.21256238 48.79953214 13.20147705 52.30938721 C13.19122027 55.89570551 13.18667429 59.48203061 13.18164062 63.06835938 C13.17093822 70.09637301 13.15335756 77.12435206 13.1328125 84.15234375 C5.8728125 84.15234375 -1.3871875 84.15234375 -8.8671875 84.15234375 C-8.88177002 82.55841797 -8.89635254 80.96449219 -8.91137695 79.32226562 C-8.96950764 73.38812231 -9.04674048 67.45435256 -9.12963867 61.52050781 C-9.16281844 58.95611653 -9.19087182 56.39165344 -9.21362305 53.82714844 C-9.247296 50.13315333 -9.29962057 46.43981215 -9.35546875 42.74609375 C-9.36185867 41.60619995 -9.3682486 40.46630615 -9.37483215 39.29187012 C-9.51662167 31.55191568 -10.15011637 25.44142986 -15.2421875 19.27734375 C-20.99224524 14.6225351 -26.73061292 14.50636071 -33.8671875 15.15234375 C-39.45881025 16.39376746 -42.66333061 19.48386657 -45.8671875 24.15234375 C-48.56755015 30.04566267 -48.21741868 36.19475091 -48.28125 42.55078125 C-48.30061615 43.74087799 -48.3199823 44.93097473 -48.3399353 46.15713501 C-48.39957253 49.94713236 -48.44605366 53.73716034 -48.4921875 57.52734375 C-48.53038181 60.10157553 -48.56943439 62.67579472 -48.609375 65.25 C-48.70526131 71.55067871 -48.78935141 77.85141724 -48.8671875 84.15234375 C-56.1271875 84.15234375 -63.3871875 84.15234375 -70.8671875 84.15234375 C-70.8671875 55.11234375 -70.8671875 26.07234375 -70.8671875 -3.84765625 C-63.6071875 -3.84765625 -56.3471875 -3.84765625 -48.8671875 -3.84765625 C-48.5371875 -0.87765625 -48.2071875 2.09234375 -47.8671875 5.15234375 C-47.37089844 4.68183594 -46.87460937 4.21132813 -46.36328125 3.7265625 C-33.52679491 -8.03818684 -14.93396909 -9.62366128 0 0 Z " fill="#EFEBF9" transform="translate(885.8671875,261.84765625)"/>
<path d="M0 0 C7.7218948 4.11935727 12.37429924 11.02526293 15.30859375 19.078125 C16.63983604 23.62089529 17.12349541 27.77717896 17.11352539 32.51293945 C17.11341209 34.31424065 17.11341209 34.31424065 17.11329651 36.15193176 C17.10813522 37.43855209 17.10297394 38.72517242 17.09765625 40.05078125 C17.09578956 41.38884936 17.09436684 42.72691815 17.09336853 44.06498718 C17.08956314 47.5748587 17.07974988 51.08468839 17.06866455 54.59454346 C17.05840777 58.18086176 17.05386179 61.76718686 17.04882812 65.35351562 C17.03812572 72.38152926 17.02054506 79.40950831 17 86.4375 C9.74 86.4375 2.48 86.4375 -5 86.4375 C-5.01458252 84.879104 -5.02916504 83.32070801 -5.04418945 81.71508789 C-5.1023792 75.90577827 -5.17961127 70.09684788 -5.26245117 64.2878418 C-5.29560332 61.77879006 -5.32366514 59.26966548 -5.34643555 56.76049805 C-5.3801597 53.14340319 -5.43248627 49.52696998 -5.48828125 45.91015625 C-5.49467117 44.79729752 -5.5010611 43.68443878 -5.50764465 42.53785706 C-5.6542039 34.68633019 -6.29285412 27.69995785 -11.4375 21.5 C-17.54992305 16.58024486 -23.33217863 16.68006886 -31 17.4375 C-35.90481106 19.0019656 -39.23858283 22.14196218 -42 26.4375 C-44.67497033 32.35727831 -44.35007249 38.46410584 -44.4140625 44.8359375 C-44.43342865 46.02603424 -44.4527948 47.21613098 -44.4727478 48.44229126 C-44.53238503 52.23228861 -44.57886616 56.02231659 -44.625 59.8125 C-44.66319431 62.38673178 -44.70224689 64.96095097 -44.7421875 67.53515625 C-44.83807381 73.83583496 -44.92216391 80.13657349 -45 86.4375 C-52.26 86.4375 -59.52 86.4375 -67 86.4375 C-67 57.3975 -67 28.3575 -67 -1.5625 C-59.74 -1.5625 -52.48 -1.5625 -45 -1.5625 C-44.67 1.7375 -44.34 5.0375 -44 8.4375 C-43.38125 7.550625 -42.7625 6.66375 -42.125 5.75 C-32.05402836 -6.4625001 -13.29265612 -5.61986813 0 0 Z " fill="#EFEBF8" transform="translate(781,259.5625)"/>
<path d="M0 0 C7.92 0 15.84 0 24 0 C26.61031542 5.8732097 29.17388206 11.72605501 31.5625 17.6875 C32.0565332 18.91968262 32.0565332 18.91968262 32.56054688 20.17675781 C37.64988005 33.01173974 42.29694844 46.01978579 47 59 C49.00990226 53.7944113 51.01784544 48.5880722 53.02416992 43.38110352 C53.70335223 41.61918994 54.38302002 39.85746341 55.06323242 38.09594727 C59.07926184 27.69469861 63.04563835 17.28077724 66.82691956 6.79142761 C68.8931951 1.1068049 68.8931951 1.1068049 70 0 C71.70772358 -0.08713831 73.41898649 -0.10700007 75.12890625 -0.09765625 C76.68061523 -0.09282227 76.68061523 -0.09282227 78.26367188 -0.08789062 C79.35228516 -0.07951172 80.44089844 -0.07113281 81.5625 -0.0625 C83.2012207 -0.05573242 83.2012207 -0.05573242 84.87304688 -0.04882812 C87.58208495 -0.03699826 90.29101599 -0.02051543 93 0 C90.25735413 8.7844165 86.73041961 17.23997758 83.25 25.75 C82.57833054 27.39799677 81.90694943 29.04611109 81.23583984 30.69433594 C80.19480031 33.25081745 79.1534853 35.807184 78.11105347 38.36309814 C75.82140922 43.97746133 73.54287605 49.5961911 71.2734375 55.21875 C64.83759089 71.15803846 58.34857174 87.07465337 51.7789917 102.95935059 C51.0126245 104.81262404 50.24703398 106.66621887 49.48223877 108.5201416 C48.42046722 111.09264707 47.35532505 113.66372831 46.2890625 116.234375 C45.97001953 117.00849731 45.65097656 117.78261963 45.32226562 118.5802002 C43.1147366 123.8852634 43.1147366 123.8852634 42 125 C40.36527118 125.08700342 38.72685945 125.10701063 37.08984375 125.09765625 C36.10048828 125.09443359 35.11113281 125.09121094 34.09179688 125.08789062 C33.05087891 125.07951172 32.00996094 125.07113281 30.9375 125.0625 C29.89271484 125.05798828 28.84792969 125.05347656 27.77148438 125.04882812 C25.1809334 125.03699913 22.59049441 125.02051689 20 125 C22.32100948 117.67575485 25.13946981 110.63915297 28.125 103.5625 C28.58003906 102.47517578 29.03507813 101.38785156 29.50390625 100.26757812 C32.82287645 92.3542471 32.82287645 92.3542471 34 90 C34.50177876 84.02817255 33.11110125 79.845714 30.84375 74.46484375 C30.5094397 73.64464752 30.17512939 72.82445129 29.83068848 71.97940063 C28.73228849 69.29373399 27.61644345 66.61571019 26.5 63.9375 C25.7334573 62.07386353 24.96784359 60.2098447 24.203125 58.34545898 C18.19798117 43.74193441 12.0826711 29.18226793 5.91601562 14.64624023 C5.59169556 13.88129242 5.26737549 13.1163446 4.93322754 12.32821655 C4.32945154 10.90531515 3.72462255 9.48285992 3.11853027 8.0609436 C1.9856876 5.39255268 0.91725312 2.75175937 0 0 Z " fill="#EFEBF9" transform="translate(904,258)"/>
<path d="M0 0 C5.64964885 4.30940369 11.2680356 10.88563336 12.3046875 18.12890625 C12.3125 20.0625 12.3125 20.0625 12 23 C4.87049629 24.90120099 -1.63740707 25.22424141 -9 25 C-9.5878125 23.63875 -9.5878125 23.63875 -10.1875 22.25 C-13.01743036 17.17564212 -16.57776471 14.82292603 -22 13 C-28.87931835 12.16320712 -35.65525366 11.90998376 -41.34375 16.296875 C-47.40872786 22.53350318 -48.48244823 29.07986128 -48.5625 37.5 C-48.44390013 45.23751554 -47.92317982 52.61526961 -42.5390625 58.6328125 C-36.93962707 63.60693027 -32.3456328 64.46978322 -25.04296875 64.30078125 C-20.64790966 63.86635307 -17.34928008 62.94705707 -14 60 C-11.98545552 57.13826322 -10.41978813 54.19452329 -9 51 C-1.52906777 50.70116271 5.63044989 51.84074493 13 53 C11.49581555 62.32594357 8.12372508 69.79081585 0.6875 75.875 C-11.1536915 84.32729831 -23.86545776 85.07571559 -38 84 C-48.57393552 82.09209424 -56.9298635 76.29672352 -63.65625 68.01953125 C-66.35281015 63.96685218 -68.22599948 59.51855929 -70 55 C-70.36996094 54.08605469 -70.73992188 53.17210937 -71.12109375 52.23046875 C-72.25764305 48.05301866 -72.34213033 44.18556959 -72.3125 39.875 C-72.30758545 39.03404785 -72.3026709 38.1930957 -72.29760742 37.32666016 C-72.05875158 24.55583444 -68.54246356 13.27758803 -59.8515625 3.6953125 C-42.89801957 -11.82755171 -19.0256919 -11.66264164 0 0 Z " fill="#EEEAF9" transform="translate(593,264)"/>
<path d="M0 0 C0 6.27 0 12.54 0 19 C-3.515625 18.93489583 -7.03125 18.86979167 -10.546875 18.8046875 C-13.76948618 18.98696189 -15.40356467 19.16793582 -18 21 C-20.34770643 24.52155964 -20.37669614 26.50771843 -20.625 30.6875 C-20.810625 33.8121875 -20.810625 33.8121875 -21 37 C-14.07 37 -7.14 37 0 37 C0 43.27 0 49.54 0 56 C-6.93 56 -13.86 56 -21 56 C-21 78.77 -21 101.54 -21 125 C-28.26 125 -35.52 125 -43 125 C-43 102.23 -43 79.46 -43 56 C-47.62 56 -52.24 56 -57 56 C-57 49.73 -57 43.46 -57 37 C-52.38 37 -47.76 37 -43 37 C-43.04640625 35.96101563 -43.0928125 34.92203125 -43.140625 33.8515625 C-43.45923941 23.68275772 -42.42409648 16.56415679 -37 7.75 C-27.41148764 -2.328016 -12.82706903 -3.20676726 0 0 Z " fill="#EEEBF7" transform="translate(1061,221)"/>
<path d="M0 0 C0 6.93 0 13.86 0 21 C-3.465 21.0928125 -3.465 21.0928125 -7 21.1875 C-13.38240621 21.52265702 -18.29752108 22.45507837 -23 27 C-26.68417552 31.72330194 -28.10677633 35.27897633 -28.20532227 41.20581055 C-28.22526749 42.26668381 -28.24521271 43.32755707 -28.26576233 44.420578 C-28.28247482 45.56440445 -28.29918732 46.7082309 -28.31640625 47.88671875 C-28.33718735 49.05886429 -28.35796844 50.23100983 -28.37937927 51.43867493 C-28.44483818 55.18822286 -28.50374296 58.93784163 -28.5625 62.6875 C-28.60568868 65.22722091 -28.64930308 67.76693462 -28.69335938 70.30664062 C-28.8005159 76.53768755 -28.90179388 82.76880584 -29 89 C-36.26 89 -43.52 89 -51 89 C-51 59.96 -51 30.92 -51 1 C-44.07 1 -37.14 1 -30 1 C-29.67 4.63 -29.34 8.26 -29 12 C-28.01 10.7625 -27.02 9.525 -26 8.25 C-18.18602864 -0.51159016 -11.53228413 -0.44354939 0 0 Z " fill="#EFEBF8" transform="translate(1216,257)"/>
<path d="M0 0 C6.1596225 3.66247824 10.18776271 8.90324062 12.15234375 15.78515625 C13.99558299 26.12862272 13.17036723 34.74389005 7.26953125 43.43359375 C3.29419148 48.55997024 -0.74528532 50.93437123 -7.13671875 51.8203125 C-14.9922691 52.28299536 -20.31447117 50.45350587 -26.375 45.4375 C-31.5429864 39.36511598 -32.76882501 32.3758202 -32.75 24.5625 C-32.74838867 23.86213623 -32.74677734 23.16177246 -32.74511719 22.44018555 C-32.60796732 16.63484686 -31.48836922 12.3021394 -28.375 7.4375 C-27.7975 6.509375 -27.22 5.58125 -26.625 4.625 C-19.45477062 -2.34605634 -9.2648866 -4.09997855 0 0 Z " fill="#140B3C" transform="translate(1119.375,277.5625)"/>
<path d="M0 0 C5.66467755 3.30982117 8.95805896 8.01958948 11.7890625 13.81640625 C13.72932011 23.16492021 13.26833072 33.24063126 8 41.421875 C3.49402667 47.06977308 -0.85687147 49.54093382 -7.97265625 50.4375 C-13.9987433 50.74203426 -18.59941785 49.66804537 -23.5234375 46.12890625 C-30.38106981 39.42366577 -31.83018081 32.78679007 -31.9609375 23.62890625 C-31.89271881 15.96622169 -31.07748878 10.76876963 -25.58203125 5.140625 C-18.42674653 -1.43485764 -9.48051478 -3.27268544 0 0 Z " fill="#150C3E" transform="translate(1272.5234375,276.87109375)"/>
<path d="M0 0 C0 3 0 3 -1.71484375 4.75390625 C-2.44832031 5.35074219 -3.18179688 5.94757813 -3.9375 6.5625 C-6.92648955 8.91285524 -6.92648955 8.91285524 -9 12 C8.49 11.67 25.98 11.34 44 11 C44.495 11.99 44.495 11.99 45 13 C44.2578125 14.7421875 44.2578125 14.7421875 43.125 16.875 C40.3081053 22.9324012 40.3081053 22.9324012 40 34 C19.21 34 -1.58 34 -23 34 C-23 26.74 -23 19.48 -23 12 C-20.875625 11.319375 -18.75125 10.63875 -16.5625 9.9375 C-10.06465967 7.73443137 -5.08788593 4.67062544 0 0 Z " fill="#7038F9" transform="translate(220,362)"/>
<path d="M0 0 C0.66 0 1.32 0 2 0 C2.24234375 0.72445312 2.4846875 1.44890625 2.734375 2.1953125 C5.70090139 10.75260015 9.91078067 16.99473027 15.51171875 24.046875 C18.17982822 27.54833099 18.19053804 29.93709114 18.25 34.3125 C18.27578125 35.44300781 18.3015625 36.57351562 18.328125 37.73828125 C17.78526079 43.13461002 15.00181343 46.49841325 11 50 C5.11800785 51.96066405 -2.64885613 52.54583243 -8.37109375 49.90625 C-13.32559735 45.90002773 -15.6056786 40.98557631 -16.4375 34.6875 C-15.39693773 25.91704658 -11.52920105 20.20404377 -5.90625 13.60546875 C-2.87381072 9.4607208 -1.41483428 4.89607126 0 0 Z " fill="#F8A51B" transform="translate(282,193)"/>
<path d="M0 0 C0.7775838 -0.00085442 1.5551676 -0.00170885 2.35631454 -0.00258917 C4.97583715 -0.00424332 7.59529647 0.00127635 10.21481323 0.00672913 C12.0870056 0.00701104 13.95919808 0.00685319 15.83139038 0.00628662 C20.92616041 0.0059988 26.02090706 0.01189303 31.11567163 0.01886058 C36.43549132 0.02509669 41.7553115 0.02569812 47.07513428 0.02688599 C57.15445715 0.02999854 67.23376923 0.03821091 77.31308734 0.04823548 C88.78570722 0.05939896 100.2583276 0.06490766 111.73095155 0.06993091 C135.33609243 0.08039358 158.94122371 0.09799156 182.5463562 0.12025452 C182.5463562 1.77025452 182.5463562 3.42025452 182.5463562 5.12025452 C171.98386967 5.1529502 161.42138607 5.17189432 150.8588562 5.18275452 C149.61944904 5.18403854 149.61944904 5.18403854 148.35500336 5.18534851 C112.6254938 5.21778595 76.8990707 4.9412432 41.1713562 4.62025452 C40.50552159 4.6142808 39.83968698 4.60830709 39.15367556 4.60215235 C21.95117685 4.44769236 4.74874024 4.28698558 -12.4536438 4.12025452 C-8.4876954 -0.02596426 -5.56480445 -0.02210007 0 0 Z " fill="#342196" transform="translate(182.45364379882813,267.87974548339844)"/>
<path d="M0 0 C0.97453125 0.00451172 1.9490625 0.00902344 2.953125 0.01367188 C5.34381434 0.02539094 7.7343744 0.04179781 10.125 0.0625 C10.1794583 1.63763057 10.21799934 3.2133157 10.25 4.7890625 C10.27320313 5.66643066 10.29640625 6.54379883 10.3203125 7.44775391 C9.992967 11.83009182 8.14229177 14.93693221 5.125 18.0625 C-0.33837351 21.72955031 -5.69646802 23.22252016 -12.25 23.3125 C-13.37148438 23.33828125 -14.49296875 23.3640625 -15.6484375 23.390625 C-20.01737474 22.9463263 -22.57032206 21.32218905 -25.6875 18.3125 C-27.44598729 14.98062934 -27.38762487 12.77903027 -26.875 9.0625 C-23.38920948 3.78401722 -20.42798475 1.83464472 -14.39453125 0.5234375 C-9.58444326 -0.10651853 -4.84480659 -0.04267106 0 0 Z " fill="#160E3D" transform="translate(663.875,307.9375)"/>
<path d="M0 0 C1.21171875 -0.02578125 2.4234375 -0.0515625 3.671875 -0.078125 C8.40942183 0.35632253 11.64199055 1.73638104 15.11328125 5.00390625 C15.59152344 5.60074219 16.06976562 6.19757813 16.5625 6.8125 C17.29919922 7.71162109 17.29919922 7.71162109 18.05078125 8.62890625 C20.73998114 12.26414389 20.25 12.96924555 20.25 18.25 C7.38 18.25 -5.49 18.25 -18.75 18.25 C-18.75 11.95796982 -18.49545086 10.88253133 -14.75 6.25 C-9.82551129 1.57676072 -6.80610315 0.0861532 0 0 Z " fill="#140C3D" transform="translate(1358.75,274.75)"/>
<path d="M0 0 C72.27 0 144.54 0 219 0 C219.33 0.99 219.66 1.98 220 3 C250.36 3 280.72 3 312 3 C311.67 3.66 311.34 4.32 311 5 C309.98966705 4.99777939 308.97933411 4.99555878 307.93838501 4.99327087 C298.43238032 4.97302837 288.92637998 4.9580225 279.42035866 4.94818783 C274.53283416 4.94296183 269.64532701 4.93586929 264.7578125 4.92456055 C260.04403894 4.91372165 255.3302821 4.90772103 250.61649704 4.90512276 C248.8151053 4.90327032 247.01371451 4.89965317 245.21232986 4.89426994 C242.69573209 4.88704624 240.17920407 4.88600963 237.66259766 4.88647461 C236.53726875 4.8810817 236.53726875 4.8810817 235.38920593 4.87557983 C231.5681684 4.81575895 231.5681684 4.81575895 228 6 C225.30434798 5.83219837 222.67594446 5.38844355 220 5 C219.67 4.01 219.34 3.02 219 2 C217.84254776 2.01252808 216.68509552 2.02505615 215.49256897 2.03796387 C200.34930072 2.20090834 185.20593759 2.35366315 170.0625 2.5 C168.83400707 2.51187725 167.60551414 2.5237545 166.33979416 2.53599167 C127.0802069 2.91247927 87.82387189 3.09167163 48.5625 3.0625 C46.82167082 3.06121597 46.82167082 3.06121597 45.04567337 3.05990601 C31.03043216 3.04877694 17.01521515 3.0291146 3 3 C3.47431423 4.43651068 3.94980177 5.87263398 4.42578125 7.30859375 C4.82277222 8.50826782 4.82277222 8.50826782 5.2277832 9.73217773 C6.06572772 12.19302713 6.9946969 14.60273876 8 17 C3.4290689 13.40855414 1.69417009 8.39791428 0 3 C0 2.01 0 1.02 0 0 Z " fill="#9C5BD5" transform="translate(145,250)"/>
<path d="M0 0 C0.66 0 1.32 0 2 0 C2.17015625 0.65226563 2.3403125 1.30453125 2.515625 1.9765625 C4.80978592 10.76315363 4.80978592 10.76315363 10.859375 17.21484375 C14.47283132 19.12345508 17.91230169 20.48903771 22 21 C22 21.66 22 22.32 22 23 C21.26394531 23.23074219 20.52789062 23.46148437 19.76953125 23.69921875 C11.82845212 26.27517894 11.82845212 26.27517894 6 32 C4.46114342 35.60765053 3.17287261 39.25860191 2 43 C-0.12273445 40.87726555 -0.72425547 39.44284252 -1.8125 36.6875 C-4.12499913 31.45924111 -6.32975255 28.14654693 -11.765625 25.8125 C-14.49309312 24.80543485 -17.2259864 23.86961197 -20 23 C-19 21 -19 21 -16.63671875 20.10546875 C-15.66347656 19.80253906 -14.69023437 19.49960938 -13.6875 19.1875 C-9.02193899 17.51778372 -6.37018313 16.5507516 -4 12 C-2.5244659 8.03935584 -1.21376562 4.04803746 0 0 Z " fill="#F6B324" transform="translate(386,181)"/>
<path d="M0 0 C0.66 0 1.32 0 2 0 C2.26554687 0.89203125 2.53109375 1.7840625 2.8046875 2.703125 C3.15789062 3.87359375 3.51109375 5.0440625 3.875 6.25 C4.22304687 7.41015625 4.57109375 8.5703125 4.9296875 9.765625 C6.16818624 13.52647626 6.16818624 13.52647626 8 17 C10.7447571 18.22148021 10.7447571 18.22148021 14 19 C15.29226893 19.37291929 16.58394576 19.74789694 17.875 20.125 C19.421875 20.558125 19.421875 20.558125 21 21 C21 21.66 21 22.32 21 23 C20.19175781 23.268125 19.38351563 23.53625 18.55078125 23.8125 C12.28059959 26.11181873 7.93800366 27.84102259 4.82421875 33.9296875 C3.62934317 36.93103374 2.72215848 39.84876298 2 43 C1.34 43 0.68 43 0 43 C-0.19851562 42.14277344 -0.39703125 41.28554687 -0.6015625 40.40234375 C-2.18796073 35.0315986 -3.50813944 30.58608085 -8.44921875 27.578125 C-11.86867057 25.79495651 -15.38782683 24.34417811 -19 23 C-19 22.34 -19 21.68 -19 21 C-18.25234375 20.75765625 -17.5046875 20.5153125 -16.734375 20.265625 C-15.74953125 19.93046875 -14.7646875 19.5953125 -13.75 19.25 C-12.28820312 18.76273438 -12.28820312 18.76273438 -10.796875 18.265625 C-6.38095032 16.26735741 -4.50524267 14.29117571 -2.734375 9.765625 C-2.40953125 8.60546875 -2.0846875 7.4453125 -1.75 6.25 C-1.41484375 5.07953125 -1.0796875 3.9090625 -0.734375 2.703125 C-0.49203125 1.81109375 -0.2496875 0.9190625 0 0 Z " fill="#F5B326" transform="translate(185,181)"/>
<path d="M0 0 C1.46300982 0.93018526 2.92025579 1.86944027 4.375 2.8125 C5.18710937 3.33457031 5.99921875 3.85664062 6.8359375 4.39453125 C9 6 9 6 11 9 C9.35 9.99 7.7 10.98 6 12 C6.185625 13.03125 6.37125 14.0625 6.5625 15.125 C7.79785432 25.00783457 6.7229623 35.0844933 2.0625 43.9375 C0.77522064 46.42718316 -0.32963895 48.82409737 -1.375 51.4375 C-4.50734278 58.30455917 -8.60321883 63.74907778 -14 69 C-14.495 69.886875 -14.99 70.77375 -15.5 71.6875 C-17.32765553 74.5051356 -18.83634827 75.05945489 -22 76 C-21.236875 75.01 -20.47375 74.02 -19.6875 73 C-1.90616747 49.6653651 -1.90616747 49.6653651 4.375 21.6875 C4.37628906 20.95200928 4.37757813 20.21651855 4.37890625 19.45874023 C4.2707266 13.83893049 3.15037013 9.17879318 0.875 4.00390625 C0 2 0 2 0 0 Z " fill="#F1D14D" transform="translate(265,64)"/>
<path d="M0 0 C7.26 0 14.52 0 22 0 C20.68 0.99 19.36 1.98 18 3 C56.28 3.33 94.56 3.66 134 4 C134 4.33 134 4.66 134 5 C91.76 5 49.52 5 6 5 C6 3.68 6 2.36 6 1 C4.02 1 2.04 1 0 1 C0 0.67 0 0.34 0 0 Z " fill="#1A0D69" transform="translate(153,268)"/>
<path d="M0 0 C1.65 0 3.3 0 5 0 C5 7.26 5 14.52 5 22 C-15.79 22 -36.58 22 -58 22 C-58 18.7 -58 15.4 -58 12 C-57.01 12.33 -56.02 12.66 -55 13 C-55.33 15.64 -55.66 18.28 -56 21 C-36.2 21 -16.4 21 4 21 C4 14.4 4 7.8 4 1 C2.68 0.67 1.36 0.34 0 0 Z " fill="#502DE2" transform="translate(383,374)"/>
<path d="M0 0 C0.33 0 0.66 0 1 0 C0.23836525 11.67839943 -7.01249146 21.01249146 -15 29 C-15.495 29.886875 -15.99 30.77375 -16.5 31.6875 C-18.32765553 34.5051356 -19.83634827 35.05945489 -23 36 C-22.236875 35.01 -21.47375 34.02 -20.6875 33 C-12.83924808 22.4859523 -5.39118275 12.01073625 0 0 Z " fill="#ECC541" transform="translate(266,104)"/>
<path d="M0 0 C0.66 0 1.32 0 2 0 C2.83726938 5.09006622 3.1542294 9.97088262 3.125 15.125 C3.12886719 15.81464844 3.13273437 16.50429687 3.13671875 17.21484375 C3.12960393 20.93589698 2.88672323 24.38273222 2 28 C1.34 28 0.68 28 0 28 C-0.38909985 26.54536519 -0.76088029 25.08608793 -1.125 23.625 C-1.33382813 22.81289062 -1.54265625 22.00078125 -1.7578125 21.1640625 C-1.83773438 20.44992188 -1.91765625 19.73578125 -2 19 C-1.34 18.34 -0.68 17.68 0 17 C0.14517744 14.0906442 0.18630796 11.280054 0.125 8.375 C0.11597656 7.57320313 0.10695313 6.77140625 0.09765625 5.9453125 C0.07406223 3.96341477 0.03819065 1.98167019 0 0 Z " fill="#F3CC42" transform="translate(298,107)"/>
<path d="M0 0 C15.51 0 31.02 0 47 0 C47 0.66 47 1.32 47 2 C49.97 2 52.94 2 56 2 C56 2.99 56 3.98 56 5 C53.03 4.67 50.06 4.34 47 4 C46.505 2.515 46.505 2.515 46 1 C30.82 1 15.64 1 0 1 C0 0.67 0 0.34 0 0 Z " fill="#B268F9" transform="translate(318,251)"/>
<path d="M0 0 C7.92 0 15.84 0 24 0 C24 0.66 24 1.32 24 2 C17.4 2.33 10.8 2.66 4 3 C3.67 3.99 3.34 4.98 3 6 C0 2.25 0 2.25 0 0 Z " fill="#CDC9D9" transform="translate(904,258)"/>
<path d="M0 0 C6.72998858 6.13616606 12.31153072 14.23002778 15 23 C14.67 23.66 14.34 24.32 14 25 C12 24 12 24 10.9375 21.1875 C10 18 10 18 9.5625 15.6875 C9.376875 15.130625 9.19125 14.57375 9 14 C8.01 13.67 7.02 13.34 6 13 C4.5841351 10.08961104 3.70077733 7.153498 3 4 C2.34 4 1.68 4 1 4 C0.67 2.68 0.34 1.36 0 0 Z " fill="#E9C549" transform="translate(284,81)"/>
<path d="M0 0 C0.33 0 0.66 0 1 0 C1.03867188 1.54107422 1.03867188 1.54107422 1.078125 3.11328125 C1.39640544 11.74546409 2.36632377 19.02281312 6 27 C4.20866022 27.05391993 2.41686101 27.09275571 0.625 27.125 C-0.37273437 27.14820313 -1.37046875 27.17140625 -2.3984375 27.1953125 C-5 27 -5 27 -7 25 C-4.03 25.33 -1.06 25.66 2 26 C1.67 24.865625 1.34 23.73125 1 22.5625 C-0.6859212 15.17769025 -0.15551533 7.5252141 0 0 Z " fill="#CA811F" transform="translate(250,215)"/>
<path d="M0 0 C0.66 0 1.32 0 2 0 C2.99 3.63 3.98 7.26 5 11 C3.02 11.66 1.04 12.32 -1 13 C-2.51303606 8.46089183 -1.49050192 4.47150576 0 0 Z " fill="#E2A82C" transform="translate(282,193)"/>
<path d="M0 0 C0 3 0 3 -1.71484375 4.75390625 C-2.44832031 5.35074219 -3.18179688 5.94757813 -3.9375 6.5625 C-6.92648955 8.91285524 -6.92648955 8.91285524 -9 12 C-12.63 12 -16.26 12 -20 12 C-17.52637184 10.35091456 -15.52562869 9.34485547 -12.8125 8.25 C-7.98325502 6.15996611 -4.05803059 3.31719122 0 0 Z " fill="#532BE0" transform="translate(220,362)"/>
<path d="M0 0 C0.66 0 1.32 0 2 0 C2.66 3.3 3.32 6.6 4 10 C1 12 1 12 -3 12 C-2.01 8.04 -1.02 4.08 0 0 Z " fill="#EBB634" transform="translate(185,181)"/>
<path d="M0 0 C4.62 0 9.24 0 14 0 C8.375 4.5 8.375 4.5 4.1875 4.25 C3.39730469 4.21390625 2.60710937 4.1778125 1.79296875 4.140625 C1.20128906 4.09421875 0.60960937 4.0478125 0 4 C0 2.68 0 1.36 0 0 Z " fill="#282278" transform="translate(161,268)"/>
<path d="M0 0 C0.33 0 0.66 0 1 0 C2.70159453 13.6332574 2.70159453 13.6332574 -1 20 C-0.01 20.33 0.98 20.66 2 21 C2 21.33 2 21.66 2 22 C-0.31 22 -2.62 22 -5 22 C-4.58427734 21.12601563 -4.58427734 21.12601563 -4.16015625 20.234375 C-1.17472264 13.47730817 -0.25276441 7.35544424 0 0 Z " fill="#CD8417" transform="translate(317,219)"/>
<path d="M0 0 C0.99 0.33 1.98 0.66 3 1 C1.84941444 6.39795989 0.57578241 11.70987333 -1 17 C-1.33 17 -1.66 17 -2 17 C-2.22084624 10.90218999 -2.01167675 5.78357065 0 0 Z " fill="#29273B" transform="translate(300,130)"/>
<path d="M0 0 C1.27794736 3.83384209 0.49199906 5.54272425 -0.6875 9.375 C-1.02136719 10.49648437 -1.35523438 11.61796875 -1.69921875 12.7734375 C-3.03786973 16.09393514 -4.6323204 18.33822967 -7 21 C-5.7007986 13.63785876 -2.80530167 6.89069245 0 0 Z " fill="#EC9B1C" transform="translate(350,205)"/>
<path d="M0 0 C0.99 0.33 1.98 0.66 3 1 C3.84375 3.1796875 3.84375 3.1796875 4.5 5.875 C5.38621162 9.49369745 6.11282891 11.57798425 9 14 C8.67 14.99 8.34 15.98 8 17 C3.98991145 12.70347656 0 6.07663952 0 0 Z " fill="#EDA01F" transform="translate(220,210)"/>
<path d="M0 0 C1.15957207 3.47871621 0.77456651 4.34219645 -0.4375 7.6875 C-0.72496094 8.49574219 -1.01242188 9.30398437 -1.30859375 10.13671875 C-1.53675781 10.75160156 -1.76492187 11.36648437 -2 12 C-2.66 12 -3.32 12 -4 12 C-4.66 9.36 -5.32 6.72 -6 4 C-4.68 3.67 -3.36 3.34 -2 3 C-1.34 2.01 -0.68 1.02 0 0 Z " fill="#EDAA20" transform="translate(189,212)"/>
<path d="M0 0 C-0.66 2.31 -1.32 4.62 -2 7 C-2.33 6.34 -2.66 5.68 -3 5 C-7.95 6.485 -7.95 6.485 -13 8 C-9.81692689 4.43495812 -5.03655764 0 0 0 Z " fill="#DBB63F" transform="translate(326,112)"/>
<path d="M0 0 C1.64528614 3.12752591 2.91702499 6.3053057 4.125 9.625 C4.47820312 10.58664063 4.83140625 11.54828125 5.1953125 12.5390625 C6 15 6 15 6 17 C3 16 3 16 1.796875 13.671875 C1.45140625 12.70765625 1.1059375 11.7434375 0.75 10.75 C0.39421875 9.79609375 0.0384375 8.8421875 -0.328125 7.859375 C-1.04467822 4.80985782 -0.84919899 2.98308364 0 0 Z " fill="#EAB62F" transform="translate(322,135)"/>
<path d="M0 0 C1.5625 1 1.5625 1 3 3 C2.96726452 5.76614782 2.49404328 8.26030547 2 11 C1.34 11 0.68 11 0 11 C-0.38909985 9.54536519 -0.76088029 8.08608793 -1.125 6.625 C-1.33382813 5.81289062 -1.54265625 5.00078125 -1.7578125 4.1640625 C-1.83773438 3.44992188 -1.91765625 2.73578125 -2 2 C-1.34 1.34 -0.68 0.68 0 0 Z " fill="#F2C248" transform="translate(298,124)"/>
<path d="M0 0 C0.66 0 1.32 0 2 0 C2.33 2.97 2.66 5.94 3 9 C1.35 9.66 -0.3 10.32 -2 11 C-1 3.57142857 -1 3.57142857 0 0 Z " fill="#DDB231" transform="translate(386,181)"/>
<path d="M0 0 C0.680625 0.28875 1.36125 0.5775 2.0625 0.875 C-1.74984923 4.2252463 -5.27035711 6.04474789 -9.9375 7.875 C-9.9375 5.875 -9.9375 5.875 -8.58203125 4.33203125 C-3.58608866 -0.15259952 -3.58608866 -0.15259952 0 0 Z " fill="#EC9A1A" transform="translate(332.9375,234.125)"/>
<path d="M0 0 C0.6875 1.8125 0.6875 1.8125 1 4 C-0.3125 5.75 -0.3125 5.75 -2 7 C-2.66 7 -3.32 7 -4 7 C-4.66 8.32 -5.32 9.64 -6 11 C-7.32 10.67 -8.64 10.34 -10 10 C-9.44570312 9.52949219 -8.89140625 9.05898438 -8.3203125 8.57421875 C-7.59585937 7.95160156 -6.87140625 7.32898438 -6.125 6.6875 C-5.40570312 6.07261719 -4.68640625 5.45773437 -3.9453125 4.82421875 C-1.80820669 2.9587676 -1.80820669 2.9587676 0 0 Z " fill="#251E4D" transform="translate(1298,367)"/>
<path d="M0 0 C2 1 4 2 6 3 C6 3.66 6 4.32 6 5 C7.32 5.66 8.64 6.32 10 7 C10 8.98 10 10.96 10 13 C9.58105469 12.42636719 9.16210938 11.85273438 8.73046875 11.26171875 C6.44344174 8.27257961 3.93632075 5.50864779 1.42578125 2.70703125 C0 1 0 1 0 0 Z " fill="#4F26DF" transform="translate(314,367)"/>
<path d="M0 0 C3.37227049 1.39367924 4.90493713 2.84275299 6.8125 5.9375 C7.25207031 6.62714844 7.69164062 7.31679687 8.14453125 8.02734375 C9 10 9 10 8 13 C5.5720406 10.5720406 4.50920609 8.07878042 3 5 C2.01612294 3.32376502 1.02137457 1.65365406 0 0 Z " fill="#EAAC21" transform="translate(337,168)"/>
<path d="M0 0 C2.97 0.495 2.97 0.495 6 1 C5.01 2.485 5.01 2.485 4 4 C3.61500109 5.65549531 3.27206865 7.3222433 3 9 C0.87491756 5.81237635 0.4979837 3.73487777 0 0 Z " fill="#DFDCEA" transform="translate(1223,356)"/>
<path d="M0 0 C0.66 0.99 1.32 1.98 2 3 C-0.31 5.97 -2.62 8.94 -5 12 C-5.66 11.67 -6.32 11.34 -7 11 C-6.57847656 10.45730469 -6.15695313 9.91460937 -5.72265625 9.35546875 C-5.17480469 8.64003906 -4.62695312 7.92460937 -4.0625 7.1875 C-3.51722656 6.47980469 -2.97195312 5.77210938 -2.41015625 5.04296875 C-0.83143752 2.95874948 -0.83143752 2.95874948 0 0 Z " fill="#5B30E1" transform="translate(230,349)"/>
<path d="M0 0 C2.375 0.3125 2.375 0.3125 5 1 C5.66 1.99 6.32 2.98 7 4 C4.625 4.625 4.625 4.625 2 5 C1.34 4.34 0.68 3.68 0 3 C0 2.01 0 1.02 0 0 Z " fill="#F5D762" transform="translate(269,69)"/>
<path d="M0 0 C0.99 0.33 1.98 0.66 3 1 C2.67 3.97 2.34 6.94 2 10 C1.34 10 0.68 10 0 10 C0 6.7 0 3.4 0 0 Z " fill="#4A24D1" transform="translate(325,386)"/>
<path d="M0 0 C1.22853597 4.91414388 0.38965954 6.63269119 -2 11 C-3.32 11.33 -4.64 11.66 -6 12 C-4.02 8.04 -2.04 4.08 0 0 Z " fill="#241C4F" transform="translate(1150,321)"/>
<path d="M0 0 C2.97 0.495 2.97 0.495 6 1 C6 1.66 6 2.32 6 3 C3.36 3.66 0.72 4.32 -2 5 C-1.34 3.35 -0.68 1.7 0 0 Z " fill="#E3AC2A" transform="translate(402,201)"/>
<path d="M0 0 C0.66 0 1.32 0 2 0 C2.33 1.98 2.66 3.96 3 6 C1.68 6.33 0.36 6.66 -1 7 C-1.625 4.625 -1.625 4.625 -2 2 C-1.34 1.34 -0.68 0.68 0 0 Z " fill="#F5B530" transform="translate(282,199)"/>
<path d="M0 0 C0.66 0.66 1.32 1.32 2 2 C0.02 3.98 -1.96 5.96 -4 8 C-4.66 7.67 -5.32 7.34 -6 7 C-4.02 4.69 -2.04 2.38 0 0 Z " fill="#190B58" transform="translate(270,368)"/>
<path d="M0 0 C2.97 0 5.94 0 9 0 C9 0.99 9 1.98 9 3 C6.03 2.67 3.06 2.34 0 2 C0 1.34 0 0.68 0 0 Z " fill="#925CE0" transform="translate(365,253)"/>
<path d="M0 0 C0.33 0.66 0.66 1.32 1 2 C1.66 2.33 2.32 2.66 3 3 C2.01 3.99 1.02 4.98 0 6 C-0.99 5.67 -1.98 5.34 -3 5 C-2.34 4.67 -1.68 4.34 -1 4 C-0.34786708 1.97536745 -0.34786708 1.97536745 0 0 Z " fill="#EF9818" transform="translate(293,237)"/>
<path d="M0 0 C0.66 0 1.32 0 2 0 C2.33 1.98 2.66 3.96 3 6 C1.68 6.33 0.36 6.66 -1 7 C-0.67 4.69 -0.34 2.38 0 0 Z " fill="#D4A62C" transform="translate(185,181)"/>
<path d="M0 0 C0.33 0.99 0.66 1.98 1 3 C1.99 3.33 2.98 3.66 4 4 C4 4.33 4 4.66 4 5 C1.69 5 -0.62 5 -3 5 C-2.01 3.35 -1.02 1.7 0 0 Z " fill="#E99916" transform="translate(315,236)"/>
<path d="M0 0 C1.65 0 3.3 0 5 0 C5.33 1.32 5.66 2.64 6 4 C3.69 3.34 1.38 2.68 -1 2 C-0.67 1.34 -0.34 0.68 0 0 Z " fill="#DDAE30" transform="translate(367,202)"/>
</svg>
